<?xml version="1.0" encoding="utf-8"?>
<svg xmlns="http://www.w3.org/2000/svg" xmlns:xlink="http://www.w3.org/1999/xlink" xml:space="preserve" width="528" height="528" viewBox="0 0 528 528"><rect width="528" height="528" fill="#ffffff" x="0" y="0"/><g fill="#000000">
<g transform="translate(160,32) scale(2.7466666666667)"><rect width="6" height="6"/></g>
<g transform="translate(192,32) scale(2.7466666666667)"><rect width="6" height="6"/></g>
<g transform="translate(224,32) scale(2.7466666666667)"><rect width="6" height="6"/></g>
<g transform="translate(256,32) scale(2.7466666666667)"><rect width="6" height="6"/></g>
<g transform="translate(272,32) scale(2.7466666666667)"><rect width="6" height="6"/></g>
<g transform="translate(192,48) scale(2.7466666666667)"><rect width="6" height="6"/></g>
<g transform="translate(208,48) scale(2.7466666666667)"><rect width="6" height="6"/></g>
<g transform="translate(224,48) scale(2.7466666666667)"><rect width="6" height="6"/></g>
<g transform="translate(240,48) scale(2.7466666666667)"><rect width="6" height="6"/></g>
<g transform="translate(272,48) scale(2.7466666666667)"><rect width="6" height="6"/></g>
<g transform="translate(304,48) scale(2.7466666666667)"><rect width="6" height="6"/></g>
<g transform="translate(352,48) scale(2.7466666666667)"><rect width="6" height="6"/></g>
<g transform="translate(192,64) scale(2.7466666666667)"><rect width="6" height="6"/></g>
<g transform="translate(208,64) scale(2.7466666666667)"><rect width="6" height="6"/></g>
<g transform="translate(224,64) scale(2.7466666666667)"><rect width="6" height="6"/></g>
<g transform="translate(240,64) scale(2.7466666666667)"><rect width="6" height="6"/></g>
<g transform="translate(256,64) scale(2.7466666666667)"><rect width="6" height="6"/></g>
<g transform="translate(208,80) scale(2.7466666666667)"><rect width="6" height="6"/></g>
<g transform="translate(240,80) scale(2.7466666666667)"><rect width="6" height="6"/></g>
<g transform="translate(256,80) scale(2.7466666666667)"><rect width="6" height="6"/></g>
<g transform="translate(304,80) scale(2.7466666666667)"><rect width="6" height="6"/></g>
<g transform="translate(320,80) scale(2.7466666666667)"><rect width="6" height="6"/></g>
<g transform="translate(352,80) scale(2.7466666666667)"><rect width="6" height="6"/></g>
<g transform="translate(160,96) scale(2.7466666666667)"><rect width="6" height="6"/></g>
<g transform="translate(176,96) scale(2.7466666666667)"><rect width="6" height="6"/></g>
<g transform="translate(192,96) scale(2.7466666666667)"><rect width="6" height="6"/></g>
<g transform="translate(224,96) scale(2.7466666666667)"><rect width="6" height="6"/></g>
<g transform="translate(240,96) scale(2.7466666666667)"><rect width="6" height="6"/></g>
<g transform="translate(256,96) scale(2.7466666666667)"><rect width="6" height="6"/></g>
<g transform="translate(288,96) scale(2.7466666666667)"><rect width="6" height="6"/></g>
<g transform="translate(304,96) scale(2.7466666666667)"><rect width="6" height="6"/></g>
<g transform="translate(320,96) scale(2.7466666666667)"><rect width="6" height="6"/></g>
<g transform="translate(336,96) scale(2.7466666666667)"><rect width="6" height="6"/></g>
<g transform="translate(352,96) scale(2.7466666666667)"><rect width="6" height="6"/></g>
<g transform="translate(160,112) scale(2.7466666666667)"><rect width="6" height="6"/></g>
<g transform="translate(176,112) scale(2.7466666666667)"><rect width="6" height="6"/></g>
<g transform="translate(192,112) scale(2.7466666666667)"><rect width="6" height="6"/></g>
<g transform="translate(224,112) scale(2.7466666666667)"><rect width="6" height="6"/></g>
<g transform="translate(240,112) scale(2.7466666666667)"><rect width="6" height="6"/></g>
<g transform="translate(256,112) scale(2.7466666666667)"><rect width="6" height="6"/></g>
<g transform="translate(272,112) scale(2.7466666666667)"><rect width="6" height="6"/></g>
<g transform="translate(304,112) scale(2.7466666666667)"><rect width="6" height="6"/></g>
<g transform="translate(352,112) scale(2.7466666666667)"><rect width="6" height="6"/></g>
<g transform="translate(160,128) scale(2.7466666666667)"><rect width="6" height="6"/></g>
<g transform="translate(192,128) scale(2.7466666666667)"><rect width="6" height="6"/></g>
<g transform="translate(224,128) scale(2.7466666666667)"><rect width="6" height="6"/></g>
<g transform="translate(256,128) scale(2.7466666666667)"><rect width="6" height="6"/></g>
<g transform="translate(288,128) scale(2.7466666666667)"><rect width="6" height="6"/></g>
<g transform="translate(320,128) scale(2.7466666666667)"><rect width="6" height="6"/></g>
<g transform="translate(352,128) scale(2.7466666666667)"><rect width="6" height="6"/></g>
<g transform="translate(224,144) scale(2.7466666666667)"><rect width="6" height="6"/></g>
<g transform="translate(256,144) scale(2.7466666666667)"><rect width="6" height="6"/></g>
<g transform="translate(304,144) scale(2.7466666666667)"><rect width="6" height="6"/></g>
<g transform="translate(320,144) scale(2.7466666666667)"><rect width="6" height="6"/></g>
<g transform="translate(336,144) scale(2.7466666666667)"><rect width="6" height="6"/></g>
<g transform="translate(352,144) scale(2.7466666666667)"><rect width="6" height="6"/></g>
<g transform="translate(48,160) scale(2.7466666666667)"><rect width="6" height="6"/></g>
<g transform="translate(64,160) scale(2.7466666666667)"><rect width="6" height="6"/></g>
<g transform="translate(80,160) scale(2.7466666666667)"><rect width="6" height="6"/></g>
<g transform="translate(96,160) scale(2.7466666666667)"><rect width="6" height="6"/></g>
<g transform="translate(112,160) scale(2.7466666666667)"><rect width="6" height="6"/></g>
<g transform="translate(128,160) scale(2.7466666666667)"><rect width="6" height="6"/></g>
<g transform="translate(144,160) scale(2.7466666666667)"><rect width="6" height="6"/></g>
<g transform="translate(176,160) scale(2.7466666666667)"><rect width="6" height="6"/></g>
<g transform="translate(192,160) scale(2.7466666666667)"><rect width="6" height="6"/></g>
<g transform="translate(208,160) scale(2.7466666666667)"><rect width="6" height="6"/></g>
<g transform="translate(256,160) scale(2.7466666666667)"><rect width="6" height="6"/></g>
<g transform="translate(272,160) scale(2.7466666666667)"><rect width="6" height="6"/></g>
<g transform="translate(400,160) scale(2.7466666666667)"><rect width="6" height="6"/></g>
<g transform="translate(416,160) scale(2.7466666666667)"><rect width="6" height="6"/></g>
<g transform="translate(480,160) scale(2.7466666666667)"><rect width="6" height="6"/></g>
<g transform="translate(48,176) scale(2.7466666666667)"><rect width="6" height="6"/></g>
<g transform="translate(64,176) scale(2.7466666666667)"><rect width="6" height="6"/></g>
<g transform="translate(80,176) scale(2.7466666666667)"><rect width="6" height="6"/></g>
<g transform="translate(112,176) scale(2.7466666666667)"><rect width="6" height="6"/></g>
<g transform="translate(144,176) scale(2.7466666666667)"><rect width="6" height="6"/></g>
<g transform="translate(224,176) scale(2.7466666666667)"><rect width="6" height="6"/></g>
<g transform="translate(256,176) scale(2.7466666666667)"><rect width="6" height="6"/></g>
<g transform="translate(272,176) scale(2.7466666666667)"><rect width="6" height="6"/></g>
<g transform="translate(288,176) scale(2.7466666666667)"><rect width="6" height="6"/></g>
<g transform="translate(304,176) scale(2.7466666666667)"><rect width="6" height="6"/></g>
<g transform="translate(320,176) scale(2.7466666666667)"><rect width="6" height="6"/></g>
<g transform="translate(352,176) scale(2.7466666666667)"><rect width="6" height="6"/></g>
<g transform="translate(368,176) scale(2.7466666666667)"><rect width="6" height="6"/></g>
<g transform="translate(384,176) scale(2.7466666666667)"><rect width="6" height="6"/></g>
<g transform="translate(416,176) scale(2.7466666666667)"><rect width="6" height="6"/></g>
<g transform="translate(432,176) scale(2.7466666666667)"><rect width="6" height="6"/></g>
<g transform="translate(480,176) scale(2.7466666666667)"><rect width="6" height="6"/></g>
<g transform="translate(96,192) scale(2.7466666666667)"><rect width="6" height="6"/></g>
<g transform="translate(128,192) scale(2.7466666666667)"><rect width="6" height="6"/></g>
<g transform="translate(144,192) scale(2.7466666666667)"><rect width="6" height="6"/></g>
<g transform="translate(176,192) scale(2.7466666666667)"><rect width="6" height="6"/></g>
<g transform="translate(192,192) scale(2.7466666666667)"><rect width="6" height="6"/></g>
<g transform="translate(240,192) scale(2.7466666666667)"><rect width="6" height="6"/></g>
<g transform="translate(256,192) scale(2.7466666666667)"><rect width="6" height="6"/></g>
<g transform="translate(288,192) scale(2.7466666666667)"><rect width="6" height="6"/></g>
<g transform="translate(304,192) scale(2.7466666666667)"><rect width="6" height="6"/></g>
<g transform="translate(336,192) scale(2.7466666666667)"><rect width="6" height="6"/></g>
<g transform="translate(368,192) scale(2.7466666666667)"><rect width="6" height="6"/></g>
<g transform="translate(384,192) scale(2.7466666666667)"><rect width="6" height="6"/></g>
<g transform="translate(400,192) scale(2.7466666666667)"><rect width="6" height="6"/></g>
<g transform="translate(416,192) scale(2.7466666666667)"><rect width="6" height="6"/></g>
<g transform="translate(432,192) scale(2.7466666666667)"><rect width="6" height="6"/></g>
<g transform="translate(32,208) scale(2.7466666666667)"><rect width="6" height="6"/></g>
<g transform="translate(48,208) scale(2.7466666666667)"><rect width="6" height="6"/></g>
<g transform="translate(192,208) scale(2.7466666666667)"><rect width="6" height="6"/></g>
<g transform="translate(208,208) scale(2.7466666666667)"><rect width="6" height="6"/></g>
<g transform="translate(240,208) scale(2.7466666666667)"><rect width="6" height="6"/></g>
<g transform="translate(256,208) scale(2.7466666666667)"><rect width="6" height="6"/></g>
<g transform="translate(272,208) scale(2.7466666666667)"><rect width="6" height="6"/></g>
<g transform="translate(288,208) scale(2.7466666666667)"><rect width="6" height="6"/></g>
<g transform="translate(320,208) scale(2.7466666666667)"><rect width="6" height="6"/></g>
<g transform="translate(336,208) scale(2.7466666666667)"><rect width="6" height="6"/></g>
<g transform="translate(352,208) scale(2.7466666666667)"><rect width="6" height="6"/></g>
<g transform="translate(368,208) scale(2.7466666666667)"><rect width="6" height="6"/></g>
<g transform="translate(384,208) scale(2.7466666666667)"><rect width="6" height="6"/></g>
<g transform="translate(400,208) scale(2.7466666666667)"><rect width="6" height="6"/></g>
<g transform="translate(464,208) scale(2.7466666666667)"><rect width="6" height="6"/></g>
<g transform="translate(48,224) scale(2.7466666666667)"><rect width="6" height="6"/></g>
<g transform="translate(64,224) scale(2.7466666666667)"><rect width="6" height="6"/></g>
<g transform="translate(80,224) scale(2.7466666666667)"><rect width="6" height="6"/></g>
<g transform="translate(112,224) scale(2.7466666666667)"><rect width="6" height="6"/></g>
<g transform="translate(128,224) scale(2.7466666666667)"><rect width="6" height="6"/></g>
<g transform="translate(144,224) scale(2.7466666666667)"><rect width="6" height="6"/></g>
<g transform="translate(160,224) scale(2.7466666666667)"><rect width="6" height="6"/></g>
<g transform="translate(176,224) scale(2.7466666666667)"><rect width="6" height="6"/></g>
<g transform="translate(192,224) scale(2.7466666666667)"><rect width="6" height="6"/></g>
<g transform="translate(208,224) scale(2.7466666666667)"><rect width="6" height="6"/></g>
<g transform="translate(224,224) scale(2.7466666666667)"><rect width="6" height="6"/></g>
<g transform="translate(240,224) scale(2.7466666666667)"><rect width="6" height="6"/></g>
<g transform="translate(256,224) scale(2.7466666666667)"><rect width="6" height="6"/></g>
<g transform="translate(272,224) scale(2.7466666666667)"><rect width="6" height="6"/></g>
<g transform="translate(304,224) scale(2.7466666666667)"><rect width="6" height="6"/></g>
<g transform="translate(336,224) scale(2.7466666666667)"><rect width="6" height="6"/></g>
<g transform="translate(352,224) scale(2.7466666666667)"><rect width="6" height="6"/></g>
<g transform="translate(368,224) scale(2.7466666666667)"><rect width="6" height="6"/></g>
<g transform="translate(400,224) scale(2.7466666666667)"><rect width="6" height="6"/></g>
<g transform="translate(448,224) scale(2.7466666666667)"><rect width="6" height="6"/></g>
<g transform="translate(464,224) scale(2.7466666666667)"><rect width="6" height="6"/></g>
<g transform="translate(480,224) scale(2.7466666666667)"><rect width="6" height="6"/></g>
<g transform="translate(32,240) scale(2.7466666666667)"><rect width="6" height="6"/></g>
<g transform="translate(64,240) scale(2.7466666666667)"><rect width="6" height="6"/></g>
<g transform="translate(80,240) scale(2.7466666666667)"><rect width="6" height="6"/></g>
<g transform="translate(96,240) scale(2.7466666666667)"><rect width="6" height="6"/></g>
<g transform="translate(112,240) scale(2.7466666666667)"><rect width="6" height="6"/></g>
<g transform="translate(144,240) scale(2.7466666666667)"><rect width="6" height="6"/></g>
<g transform="translate(224,240) scale(2.7466666666667)"><rect width="6" height="6"/></g>
<g transform="translate(240,240) scale(2.7466666666667)"><rect width="6" height="6"/></g>
<g transform="translate(256,240) scale(2.7466666666667)"><rect width="6" height="6"/></g>
<g transform="translate(288,240) scale(2.7466666666667)"><rect width="6" height="6"/></g>
<g transform="translate(320,240) scale(2.7466666666667)"><rect width="6" height="6"/></g>
<g transform="translate(336,240) scale(2.7466666666667)"><rect width="6" height="6"/></g>
<g transform="translate(352,240) scale(2.7466666666667)"><rect width="6" height="6"/></g>
<g transform="translate(368,240) scale(2.7466666666667)"><rect width="6" height="6"/></g>
<g transform="translate(384,240) scale(2.7466666666667)"><rect width="6" height="6"/></g>
<g transform="translate(416,240) scale(2.7466666666667)"><rect width="6" height="6"/></g>
<g transform="translate(432,240) scale(2.7466666666667)"><rect width="6" height="6"/></g>
<g transform="translate(464,240) scale(2.7466666666667)"><rect width="6" height="6"/></g>
<g transform="translate(480,240) scale(2.7466666666667)"><rect width="6" height="6"/></g>
<g transform="translate(128,256) scale(2.7466666666667)"><rect width="6" height="6"/></g>
<g transform="translate(192,256) scale(2.7466666666667)"><rect width="6" height="6"/></g>
<g transform="translate(208,256) scale(2.7466666666667)"><rect width="6" height="6"/></g>
<g transform="translate(256,256) scale(2.7466666666667)"><rect width="6" height="6"/></g>
<g transform="translate(320,256) scale(2.7466666666667)"><rect width="6" height="6"/></g>
<g transform="translate(352,256) scale(2.7466666666667)"><rect width="6" height="6"/></g>
<g transform="translate(384,256) scale(2.7466666666667)"><rect width="6" height="6"/></g>
<g transform="translate(400,256) scale(2.7466666666667)"><rect width="6" height="6"/></g>
<g transform="translate(32,272) scale(2.7466666666667)"><rect width="6" height="6"/></g>
<g transform="translate(144,272) scale(2.7466666666667)"><rect width="6" height="6"/></g>
<g transform="translate(192,272) scale(2.7466666666667)"><rect width="6" height="6"/></g>
<g transform="translate(208,272) scale(2.7466666666667)"><rect width="6" height="6"/></g>
<g transform="translate(256,272) scale(2.7466666666667)"><rect width="6" height="6"/></g>
<g transform="translate(272,272) scale(2.7466666666667)"><rect width="6" height="6"/></g>
<g transform="translate(336,272) scale(2.7466666666667)"><rect width="6" height="6"/></g>
<g transform="translate(352,272) scale(2.7466666666667)"><rect width="6" height="6"/></g>
<g transform="translate(384,272) scale(2.7466666666667)"><rect width="6" height="6"/></g>
<g transform="translate(416,272) scale(2.7466666666667)"><rect width="6" height="6"/></g>
<g transform="translate(432,272) scale(2.7466666666667)"><rect width="6" height="6"/></g>
<g transform="translate(464,272) scale(2.7466666666667)"><rect width="6" height="6"/></g>
<g transform="translate(48,288) scale(2.7466666666667)"><rect width="6" height="6"/></g>
<g transform="translate(96,288) scale(2.7466666666667)"><rect width="6" height="6"/></g>
<g transform="translate(128,288) scale(2.7466666666667)"><rect width="6" height="6"/></g>
<g transform="translate(144,288) scale(2.7466666666667)"><rect width="6" height="6"/></g>
<g transform="translate(224,288) scale(2.7466666666667)"><rect width="6" height="6"/></g>
<g transform="translate(240,288) scale(2.7466666666667)"><rect width="6" height="6"/></g>
<g transform="translate(320,288) scale(2.7466666666667)"><rect width="6" height="6"/></g>
<g transform="translate(352,288) scale(2.7466666666667)"><rect width="6" height="6"/></g>
<g transform="translate(368,288) scale(2.7466666666667)"><rect width="6" height="6"/></g>
<g transform="translate(432,288) scale(2.7466666666667)"><rect width="6" height="6"/></g>
<g transform="translate(448,288) scale(2.7466666666667)"><rect width="6" height="6"/></g>
<g transform="translate(480,288) scale(2.7466666666667)"><rect width="6" height="6"/></g>
<g transform="translate(32,304) scale(2.7466666666667)"><rect width="6" height="6"/></g>
<g transform="translate(48,304) scale(2.7466666666667)"><rect width="6" height="6"/></g>
<g transform="translate(96,304) scale(2.7466666666667)"><rect width="6" height="6"/></g>
<g transform="translate(144,304) scale(2.7466666666667)"><rect width="6" height="6"/></g>
<g transform="translate(208,304) scale(2.7466666666667)"><rect width="6" height="6"/></g>
<g transform="translate(224,304) scale(2.7466666666667)"><rect width="6" height="6"/></g>
<g transform="translate(256,304) scale(2.7466666666667)"><rect width="6" height="6"/></g>
<g transform="translate(272,304) scale(2.7466666666667)"><rect width="6" height="6"/></g>
<g transform="translate(288,304) scale(2.7466666666667)"><rect width="6" height="6"/></g>
<g transform="translate(368,304) scale(2.7466666666667)"><rect width="6" height="6"/></g>
<g transform="translate(400,304) scale(2.7466666666667)"><rect width="6" height="6"/></g>
<g transform="translate(416,304) scale(2.7466666666667)"><rect width="6" height="6"/></g>
<g transform="translate(432,304) scale(2.7466666666667)"><rect width="6" height="6"/></g>
<g transform="translate(448,304) scale(2.7466666666667)"><rect width="6" height="6"/></g>
<g transform="translate(464,304) scale(2.7466666666667)"><rect width="6" height="6"/></g>
<g transform="translate(480,304) scale(2.7466666666667)"><rect width="6" height="6"/></g>
<g transform="translate(32,320) scale(2.7466666666667)"><rect width="6" height="6"/></g>
<g transform="translate(112,320) scale(2.7466666666667)"><rect width="6" height="6"/></g>
<g transform="translate(128,320) scale(2.7466666666667)"><rect width="6" height="6"/></g>
<g transform="translate(144,320) scale(2.7466666666667)"><rect width="6" height="6"/></g>
<g transform="translate(192,320) scale(2.7466666666667)"><rect width="6" height="6"/></g>
<g transform="translate(224,320) scale(2.7466666666667)"><rect width="6" height="6"/></g>
<g transform="translate(240,320) scale(2.7466666666667)"><rect width="6" height="6"/></g>
<g transform="translate(304,320) scale(2.7466666666667)"><rect width="6" height="6"/></g>
<g transform="translate(352,320) scale(2.7466666666667)"><rect width="6" height="6"/></g>
<g transform="translate(384,320) scale(2.7466666666667)"><rect width="6" height="6"/></g>
<g transform="translate(400,320) scale(2.7466666666667)"><rect width="6" height="6"/></g>
<g transform="translate(448,320) scale(2.7466666666667)"><rect width="6" height="6"/></g>
<g transform="translate(32,336) scale(2.7466666666667)"><rect width="6" height="6"/></g>
<g transform="translate(112,336) scale(2.7466666666667)"><rect width="6" height="6"/></g>
<g transform="translate(256,336) scale(2.7466666666667)"><rect width="6" height="6"/></g>
<g transform="translate(288,336) scale(2.7466666666667)"><rect width="6" height="6"/></g>
<g transform="translate(384,336) scale(2.7466666666667)"><rect width="6" height="6"/></g>
<g transform="translate(400,336) scale(2.7466666666667)"><rect width="6" height="6"/></g>
<g transform="translate(432,336) scale(2.7466666666667)"><rect width="6" height="6"/></g>
<g transform="translate(480,336) scale(2.7466666666667)"><rect width="6" height="6"/></g>
<g transform="translate(32,352) scale(2.7466666666667)"><rect width="6" height="6"/></g>
<g transform="translate(80,352) scale(2.7466666666667)"><rect width="6" height="6"/></g>
<g transform="translate(96,352) scale(2.7466666666667)"><rect width="6" height="6"/></g>
<g transform="translate(128,352) scale(2.7466666666667)"><rect width="6" height="6"/></g>
<g transform="translate(144,352) scale(2.7466666666667)"><rect width="6" height="6"/></g>
<g transform="translate(176,352) scale(2.7466666666667)"><rect width="6" height="6"/></g>
<g transform="translate(224,352) scale(2.7466666666667)"><rect width="6" height="6"/></g>
<g transform="translate(256,352) scale(2.7466666666667)"><rect width="6" height="6"/></g>
<g transform="translate(304,352) scale(2.7466666666667)"><rect width="6" height="6"/></g>
<g transform="translate(352,352) scale(2.7466666666667)"><rect width="6" height="6"/></g>
<g transform="translate(368,352) scale(2.7466666666667)"><rect width="6" height="6"/></g>
<g transform="translate(384,352) scale(2.7466666666667)"><rect width="6" height="6"/></g>
<g transform="translate(400,352) scale(2.7466666666667)"><rect width="6" height="6"/></g>
<g transform="translate(416,352) scale(2.7466666666667)"><rect width="6" height="6"/></g>
<g transform="translate(448,352) scale(2.7466666666667)"><rect width="6" height="6"/></g>
<g transform="translate(160,368) scale(2.7466666666667)"><rect width="6" height="6"/></g>
<g transform="translate(192,368) scale(2.7466666666667)"><rect width="6" height="6"/></g>
<g transform="translate(224,368) scale(2.7466666666667)"><rect width="6" height="6"/></g>
<g transform="translate(256,368) scale(2.7466666666667)"><rect width="6" height="6"/></g>
<g transform="translate(288,368) scale(2.7466666666667)"><rect width="6" height="6"/></g>
<g transform="translate(304,368) scale(2.7466666666667)"><rect width="6" height="6"/></g>
<g transform="translate(320,368) scale(2.7466666666667)"><rect width="6" height="6"/></g>
<g transform="translate(336,368) scale(2.7466666666667)"><rect width="6" height="6"/></g>
<g transform="translate(352,368) scale(2.7466666666667)"><rect width="6" height="6"/></g>
<g transform="translate(416,368) scale(2.7466666666667)"><rect width="6" height="6"/></g>
<g transform="translate(432,368) scale(2.7466666666667)"><rect width="6" height="6"/></g>
<g transform="translate(464,368) scale(2.7466666666667)"><rect width="6" height="6"/></g>
<g transform="translate(480,368) scale(2.7466666666667)"><rect width="6" height="6"/></g>
<g transform="translate(160,384) scale(2.7466666666667)"><rect width="6" height="6"/></g>
<g transform="translate(176,384) scale(2.7466666666667)"><rect width="6" height="6"/></g>
<g transform="translate(192,384) scale(2.7466666666667)"><rect width="6" height="6"/></g>
<g transform="translate(272,384) scale(2.7466666666667)"><rect width="6" height="6"/></g>
<g transform="translate(288,384) scale(2.7466666666667)"><rect width="6" height="6"/></g>
<g transform="translate(304,384) scale(2.7466666666667)"><rect width="6" height="6"/></g>
<g transform="translate(336,384) scale(2.7466666666667)"><rect width="6" height="6"/></g>
<g transform="translate(352,384) scale(2.7466666666667)"><rect width="6" height="6"/></g>
<g transform="translate(384,384) scale(2.7466666666667)"><rect width="6" height="6"/></g>
<g transform="translate(416,384) scale(2.7466666666667)"><rect width="6" height="6"/></g>
<g transform="translate(160,400) scale(2.7466666666667)"><rect width="6" height="6"/></g>
<g transform="translate(192,400) scale(2.7466666666667)"><rect width="6" height="6"/></g>
<g transform="translate(224,400) scale(2.7466666666667)"><rect width="6" height="6"/></g>
<g transform="translate(240,400) scale(2.7466666666667)"><rect width="6" height="6"/></g>
<g transform="translate(288,400) scale(2.7466666666667)"><rect width="6" height="6"/></g>
<g transform="translate(304,400) scale(2.7466666666667)"><rect width="6" height="6"/></g>
<g transform="translate(320,400) scale(2.7466666666667)"><rect width="6" height="6"/></g>
<g transform="translate(336,400) scale(2.7466666666667)"><rect width="6" height="6"/></g>
<g transform="translate(352,400) scale(2.7466666666667)"><rect width="6" height="6"/></g>
<g transform="translate(416,400) scale(2.7466666666667)"><rect width="6" height="6"/></g>
<g transform="translate(432,400) scale(2.7466666666667)"><rect width="6" height="6"/></g>
<g transform="translate(480,400) scale(2.7466666666667)"><rect width="6" height="6"/></g>
<g transform="translate(160,416) scale(2.7466666666667)"><rect width="6" height="6"/></g>
<g transform="translate(176,416) scale(2.7466666666667)"><rect width="6" height="6"/></g>
<g transform="translate(208,416) scale(2.7466666666667)"><rect width="6" height="6"/></g>
<g transform="translate(224,416) scale(2.7466666666667)"><rect width="6" height="6"/></g>
<g transform="translate(240,416) scale(2.7466666666667)"><rect width="6" height="6"/></g>
<g transform="translate(288,416) scale(2.7466666666667)"><rect width="6" height="6"/></g>
<g transform="translate(352,416) scale(2.7466666666667)"><rect width="6" height="6"/></g>
<g transform="translate(368,416) scale(2.7466666666667)"><rect width="6" height="6"/></g>
<g transform="translate(384,416) scale(2.7466666666667)"><rect width="6" height="6"/></g>
<g transform="translate(400,416) scale(2.7466666666667)"><rect width="6" height="6"/></g>
<g transform="translate(416,416) scale(2.7466666666667)"><rect width="6" height="6"/></g>
<g transform="translate(432,416) scale(2.7466666666667)"><rect width="6" height="6"/></g>
<g transform="translate(448,416) scale(2.7466666666667)"><rect width="6" height="6"/></g>
<g transform="translate(160,432) scale(2.7466666666667)"><rect width="6" height="6"/></g>
<g transform="translate(240,432) scale(2.7466666666667)"><rect width="6" height="6"/></g>
<g transform="translate(256,432) scale(2.7466666666667)"><rect width="6" height="6"/></g>
<g transform="translate(272,432) scale(2.7466666666667)"><rect width="6" height="6"/></g>
<g transform="translate(304,432) scale(2.7466666666667)"><rect width="6" height="6"/></g>
<g transform="translate(320,432) scale(2.7466666666667)"><rect width="6" height="6"/></g>
<g transform="translate(336,432) scale(2.7466666666667)"><rect width="6" height="6"/></g>
<g transform="translate(352,432) scale(2.7466666666667)"><rect width="6" height="6"/></g>
<g transform="translate(368,432) scale(2.7466666666667)"><rect width="6" height="6"/></g>
<g transform="translate(400,432) scale(2.7466666666667)"><rect width="6" height="6"/></g>
<g transform="translate(160,448) scale(2.7466666666667)"><rect width="6" height="6"/></g>
<g transform="translate(176,448) scale(2.7466666666667)"><rect width="6" height="6"/></g>
<g transform="translate(192,448) scale(2.7466666666667)"><rect width="6" height="6"/></g>
<g transform="translate(208,448) scale(2.7466666666667)"><rect width="6" height="6"/></g>
<g transform="translate(224,448) scale(2.7466666666667)"><rect width="6" height="6"/></g>
<g transform="translate(256,448) scale(2.7466666666667)"><rect width="6" height="6"/></g>
<g transform="translate(272,448) scale(2.7466666666667)"><rect width="6" height="6"/></g>
<g transform="translate(288,448) scale(2.7466666666667)"><rect width="6" height="6"/></g>
<g transform="translate(304,448) scale(2.7466666666667)"><rect width="6" height="6"/></g>
<g transform="translate(336,448) scale(2.7466666666667)"><rect width="6" height="6"/></g>
<g transform="translate(352,448) scale(2.7466666666667)"><rect width="6" height="6"/></g>
<g transform="translate(368,448) scale(2.7466666666667)"><rect width="6" height="6"/></g>
<g transform="translate(384,448) scale(2.7466666666667)"><rect width="6" height="6"/></g>
<g transform="translate(400,448) scale(2.7466666666667)"><rect width="6" height="6"/></g>
<g transform="translate(416,448) scale(2.7466666666667)"><rect width="6" height="6"/></g>
<g transform="translate(432,448) scale(2.7466666666667)"><rect width="6" height="6"/></g>
<g transform="translate(448,448) scale(2.7466666666667)"><rect width="6" height="6"/></g>
<g transform="translate(464,448) scale(2.7466666666667)"><rect width="6" height="6"/></g>
<g transform="translate(160,464) scale(2.7466666666667)"><rect width="6" height="6"/></g>
<g transform="translate(176,464) scale(2.7466666666667)"><rect width="6" height="6"/></g>
<g transform="translate(192,464) scale(2.7466666666667)"><rect width="6" height="6"/></g>
<g transform="translate(224,464) scale(2.7466666666667)"><rect width="6" height="6"/></g>
<g transform="translate(240,464) scale(2.7466666666667)"><rect width="6" height="6"/></g>
<g transform="translate(256,464) scale(2.7466666666667)"><rect width="6" height="6"/></g>
<g transform="translate(272,464) scale(2.7466666666667)"><rect width="6" height="6"/></g>
<g transform="translate(384,464) scale(2.7466666666667)"><rect width="6" height="6"/></g>
<g transform="translate(416,464) scale(2.7466666666667)"><rect width="6" height="6"/></g>
<g transform="translate(432,464) scale(2.7466666666667)"><rect width="6" height="6"/></g>
<g transform="translate(464,464) scale(2.7466666666667)"><rect width="6" height="6"/></g>
<g transform="translate(176,480) scale(2.7466666666667)"><rect width="6" height="6"/></g>
<g transform="translate(208,480) scale(2.7466666666667)"><rect width="6" height="6"/></g>
<g transform="translate(240,480) scale(2.7466666666667)"><rect width="6" height="6"/></g>
<g transform="translate(272,480) scale(2.7466666666667)"><rect width="6" height="6"/></g>
<g transform="translate(304,480) scale(2.7466666666667)"><rect width="6" height="6"/></g>
<g transform="translate(336,480) scale(2.7466666666667)"><rect width="6" height="6"/></g>
<g transform="translate(352,480) scale(2.7466666666667)"><rect width="6" height="6"/></g>
<g transform="translate(368,480) scale(2.7466666666667)"><rect width="6" height="6"/></g>
<g transform="translate(384,480) scale(2.7466666666667)"><rect width="6" height="6"/></g>
<g transform="translate(416,480) scale(2.7466666666667)"><rect width="6" height="6"/></g>
<g transform="translate(448,480) scale(2.7466666666667)"><rect width="6" height="6"/></g>
<g transform="translate(32,32)"><g transform="scale(8)"><path d="M0,0v14h14V0H0z M12,12H2V2h10V12z"/></g></g>
<g transform="translate(384,32)"><g transform="scale(8)"><path d="M0,0v14h14V0H0z M12,12H2V2h10V12z"/></g></g>
<g transform="translate(32,384)"><g transform="scale(8)"><path d="M0,0v14h14V0H0z M12,12H2V2h10V12z"/></g></g>
<g transform="translate(64,64)"><g transform="scale(8)"><rect width="6" height="6"/></g></g>
<g transform="translate(416,64)"><g transform="scale(8)"><rect width="6" height="6"/></g></g>
<g transform="translate(64,416)"><g transform="scale(8)"><rect width="6" height="6"/></g></g>
</g></svg>
